# xmcd
#
# Track frame offsets: 
#        150
#        15720
#        30937
#        55637
#        77222
#        96572
#        118055
#        136305
#        149625
#        166897
#        203312
#        224557
#        238697
#
# Disc length: 3405 seconds
#
# Revision: 3
# Processed by: cddbd v1.5.1PL0 Copyright (c) Steve Scherf et al.
# Submitted via: ExactAudioCopy v0.90b4
#
DISCID=b30d4b0d
DTITLE=Mike Morgan and The Crawl - Looky Here!
DYEAR=1996
DGENRE=Blues
TTITLE0=Looky Here!
TTITLE1=I'm Gonna Love You
TTITLE2=Walkin' Shoes
TTITLE3=They Both Just Want To Be Loved
TTITLE4=Lowdown And Evil
TTITLE5=You Don't Know How Much I Love You
TTITLE6=Why Can't We Get Along?
TTITLE7=This Ol' House
TTITLE8=Can I Be Forgiven?
TTITLE9=Dark And Lonely Street
TTITLE10=Born To Lose In Love
TTITLE11=Stay With Me
TTITLE12=Lone Star Boogie
EXTD=
EXTT0=
EXTT1=
EXTT2=
EXTT3=
EXTT4=
EXTT5=
EXTT6=
EXTT7=
EXTT8=
EXTT9=
EXTT10=
EXTT11=
EXTT12=
PLAYORDER=
